<svg width="100" height="37" viewBox="0 0 100 37" fill="none" xmlns="http://www.w3.org/2000/svg">
<g id="space_key">
<path id="Vector 618" d="M94.3088 36.1346H2.92424C2.14552 36.1346 1.56938 35.4099 1.74488 34.6512L8.59891 5.02219C8.72284 4.48645 9.19231 4.10155 9.74196 4.08506L97.9328 1.4384C98.6697 1.41628 99.255 2.0523 99.1719 2.78476L95.5116 35.0605C95.4422 35.6723 94.9246 36.1346 94.3088 36.1346Z" fill="#11121A"/>
<path id="Vector 619" d="M0.346488 31.305L7.01992 2.69456C7.14565 2.15549 7.62102 1.77039 8.17444 1.75927L94.2366 0.0293961C94.9958 0.0141364 95.5814 0.693522 95.4544 1.44216L90.3063 31.7824C90.2075 32.3645 89.7032 32.7904 89.1128 32.7904H1.52534C0.745718 32.7904 0.169393 32.0642 0.346488 31.305Z" fill="white" stroke="#11121A" stroke-width="1.2105"/>
<path id="Vector 620" opacity="0.1" d="M90.3018 28.1074L1.59816 28.5994L0.850911 31.5956C0.77471 31.9011 1.00582 32.1969 1.32071 32.1969H89.2154C89.4524 32.1969 89.6545 32.0254 89.6931 31.7917L90.3018 28.1074Z" fill="#11121A"/>
</g>
</svg>
