<svg width="325.13" height="164.27" viewBox="0 0 325.13 164.27" fill="none" xmlns="http://www.w3.org/2000/svg">
<path d="M 1.000 159.117V 2.000C 1.000 1.448 1.448 1.000 2.000 1.000H 323.133C 323.685 1.000 324.133 1.448 324.133 2.000V 162.263C 324.133 162.819 323.679 163.268 323.123 163.263L 1.990 160.117C 1.442 160.111 1.000 159.665 1.000 159.117Z" fill="#F3F3F4"/>
<path d="M 323.133 162.263V 160.260H 325.133V 162.263C 325.132 163.375 324.225 164.274 323.113 164.263L 321.106 164.243L 321.126 162.243L 323.133 162.263ZM 317.111 162.204L 317.092 164.203L 313.078 164.164L 313.097 162.164L 317.111 162.204ZM 309.083 162.125L 309.063 164.125L 305.050 164.086L 305.069 162.086L 309.083 162.125ZM 301.054 162.046L 301.035 164.046L 297.021 164.007L 297.041 162.007L 301.054 162.046ZM 293.026 161.968L 293.007 163.968L 288.993 163.929L 289.012 161.929L 293.026 161.968ZM 284.998 161.889L 284.978 163.889L 280.965 163.850L 280.984 161.850L 284.998 161.889ZM 276.969 161.811L 276.950 163.811L 272.936 163.771L 272.956 161.772L 276.969 161.811ZM 268.941 161.732L 268.922 163.732L 264.908 163.693L 264.927 161.693L 268.941 161.732ZM 260.913 161.653L 260.893 163.653L 256.880 163.613L 256.899 161.613L 260.913 161.653ZM 252.884 161.574L 252.865 163.574L 248.851 163.535L 248.871 161.535L 252.884 161.574ZM 244.856 161.496L 244.837 163.496L 240.823 163.456L 240.842 161.456L 244.856 161.496ZM 236.828 161.417L 236.808 163.417L 232.795 163.378L 232.814 161.378L 236.828 161.417ZM 228.800 161.339L 228.780 163.338L 224.766 163.299L 224.786 161.299L 228.800 161.339ZM 220.771 161.260L 220.752 163.260L 216.738 163.221L 216.758 161.221L 220.771 161.260ZM 212.743 161.181L 212.723 163.181L 208.710 163.142L 208.729 161.142L 212.743 161.181ZM 204.715 161.103L 204.695 163.103L 200.681 163.064L 200.701 161.064L 204.715 161.103ZM 196.686 161.024L 196.667 163.024L 192.653 162.985L 192.673 160.985L 196.686 161.024ZM 188.658 160.945L 188.638 162.945L 184.625 162.905L 184.644 160.906L 188.658 160.945ZM 180.630 160.866L 180.610 162.866L 176.596 162.827L 176.616 160.827L 180.630 160.866ZM 172.601 160.788L 172.582 162.788L 168.568 162.748L 168.588 160.749L 172.601 160.788ZM 164.573 160.709L 164.553 162.709L 160.540 162.670L 160.559 160.670L 164.573 160.709ZM 156.545 160.631L 156.525 162.631L 152.511 162.591L 152.531 160.591L 156.545 160.631ZM 148.516 160.552L 148.497 162.552L 144.483 162.513L 144.503 160.513L 148.516 160.552ZM 140.488 160.474L 140.468 162.474L 136.455 162.434L 136.474 160.434L 140.488 160.474ZM 132.460 160.395L 132.440 162.395L 128.426 162.356L 128.446 160.356L 132.460 160.395ZM 124.431 160.317L 124.412 162.316L 120.398 162.277L 120.418 160.277L 124.431 160.317ZM 116.403 160.237L 116.383 162.237L 112.370 162.198L 112.389 160.198L 116.403 160.237ZM 108.375 160.158L 108.355 162.158L 104.342 162.119L 104.361 160.119L 108.375 160.158ZM 100.346 160.080L 100.327 162.080L 96.313 162.041L 96.333 160.041L 100.346 160.080ZM 92.318 160.001L 92.299 162.001L 88.285 161.962L 88.304 159.962L 92.318 160.001ZM 84.290 159.923L 84.270 161.923L 80.257 161.883L 80.276 159.884L 84.290 159.923ZM 76.262 159.844L 76.242 161.844L 72.228 161.805L 72.248 159.805L 76.262 159.844ZM 68.233 159.766L 68.214 161.766L 64.200 161.726L 64.220 159.726L 68.233 159.766ZM 60.205 159.687L 60.185 161.687L 56.172 161.648L 56.191 159.648L 60.205 159.687ZM 52.177 159.609L 52.157 161.609L 48.144 161.568L 48.163 159.568L 52.177 159.609ZM 44.148 159.529L 44.129 161.529L 40.115 161.490L 40.135 159.490L 44.148 159.529ZM 36.120 159.451L 36.101 161.450L 32.087 161.411L 32.106 159.411L 36.120 159.451ZM 28.092 159.372L 28.072 161.372L 24.059 161.333L 24.078 159.333L 28.092 159.372ZM 20.063 159.293L 20.044 161.293L 16.030 161.254L 16.050 159.254L 20.063 159.293ZM 12.035 159.215L 12.016 161.215L 8.002 161.176L 8.021 159.176L 12.035 159.215ZM 0.000 159.116V 157.152H 2.000V 159.116L 4.007 159.136L 3.987 161.136L 1.980 161.116C 0.884 161.106 0.000 160.213 0.000 159.116ZM 325.133 152.246V 156.253H 323.133V 152.246H 325.133ZM 2.000 149.297V 153.225H 0.000V 149.297H 2.000ZM 325.133 144.234V 148.239H 323.133V 144.234H 325.133ZM 2.000 141.441V 145.369H 0.000V 141.441H 2.000ZM 325.133 136.220V 140.227H 323.133V 136.220H 325.133ZM 2.000 133.585V 137.513H 0.000V 133.585H 2.000ZM 325.133 128.207V 132.214H 323.133V 128.207H 325.133ZM 2.000 125.730V 129.657H 0.000V 125.730H 2.000ZM 325.133 120.194V 124.200H 323.133V 120.194H 325.133ZM 2.000 117.873V 121.802H 0.000V 117.873H 2.000ZM 325.133 112.181V 116.188H 323.133V 112.181H 325.133ZM 2.000 110.018V 113.945H 0.000V 110.018H 2.000ZM 325.133 104.167V 108.174H 323.133V 104.167H 325.133ZM 2.000 102.162V 106.090H 0.000V 102.162H 2.000ZM 325.133 96.154V 100.161H 323.133V 96.154H 325.133ZM 2.000 94.306V 98.234H 0.000V 94.306H 2.000ZM 325.133 88.142V 92.148H 323.133V 88.142H 325.133ZM 2.000 86.450V 90.378H 0.000V 86.450H 2.000ZM 325.133 80.128V 84.135H 323.133V 80.128H 325.133ZM 2.000 78.595V 82.523H 0.000V 78.595H 2.000ZM 325.133 72.115V 76.121H 323.133V 72.115H 325.133ZM 2.000 70.738V 74.666H 0.000V 70.738H 2.000ZM 325.133 64.102V 68.109H 323.133V 64.102H 325.133ZM 2.000 62.883V 66.811H 0.000V 62.883H 2.000ZM 325.133 56.089V 60.095H 323.133V 56.089H 325.133ZM 2.000 55.027V 58.955H 0.000V 55.027H 2.000ZM 325.133 48.075V 52.082H 323.133V 48.075H 325.133ZM 2.000 47.171V 51.099H 0.000V 47.171H 2.000ZM 325.133 40.063V 44.069H 323.133V 40.063H 325.133ZM 2.000 39.316V 43.243H 0.000V 39.316H 2.000ZM 325.133 32.049V 36.056H 323.133V 32.049H 325.133ZM 2.000 31.459V 35.388H 0.000V 31.459H 2.000ZM 325.133 24.036V 28.043H 323.133V 24.036H 325.133ZM 2.000 23.604V 27.531H 0.000V 23.604H 2.000ZM 325.133 16.023V 20.029H 323.133V 16.023H 325.133ZM 2.000 15.748V 19.676H 0.000V 15.748H 2.000ZM 325.133 8.010V 12.017H 323.133V 8.010H 325.133ZM 2.000 7.892V 11.819H 0.000V 7.892H 2.000ZM 323.133 2.000H 321.126V 0.000H 323.133C 324.237 0.000 325.133 0.896 325.133 2.000V 4.003H 323.133V 2.000ZM 0.000 2.000C 0.000 0.896 0.895 0.000 2.000 0.000H 4.007V 2.000H 2.000V 3.964H 0.000V 2.000ZM 12.035 0.000V 2.000H 8.021V 0.000H 12.035ZM 20.063 0.000V 2.000H 16.050V 0.000H 20.063ZM 28.092 0.000V 2.000H 24.078V 0.000H 28.092ZM 36.120 0.000V 2.000H 32.106V 0.000H 36.120ZM 44.148 0.000V 2.000H 40.135V 0.000H 44.148ZM 52.177 0.000V 2.000H 48.163V 0.000H 52.177ZM 60.205 0.000V 2.000H 56.191V 0.000H 60.205ZM 68.233 0.000V 2.000H 64.220V 0.000H 68.233ZM 76.262 0.000V 2.000H 72.248V 0.000H 76.262ZM 84.290 0.000V 2.000H 80.276V 0.000H 84.290ZM 92.318 0.000V 2.000H 88.304V 0.000H 92.318ZM 100.346 0.000V 2.000H 96.333V 0.000H 100.346ZM 108.375 0.000V 2.000H 104.361V 0.000H 108.375ZM 116.403 0.000V 2.000H 112.389V 0.000H 116.403ZM 124.431 0.000V 2.000H 120.418V 0.000H 124.431ZM 132.460 0.000V 2.000H 128.446V 0.000H 132.460ZM 140.488 0.000V 2.000H 136.474V 0.000H 140.488ZM 148.516 0.000V 2.000H 144.503V 0.000H 148.516ZM 156.545 0.000V 2.000H 152.531V 0.000H 156.545ZM 164.573 0.000V 2.000H 160.559V 0.000H 164.573ZM 172.601 0.000V 2.000H 168.588V 0.000H 172.601ZM 180.630 0.000V 2.000H 176.616V 0.000H 180.630ZM 188.658 0.000V 2.000H 184.644V 0.000H 188.658ZM 196.686 0.000V 2.000H 192.673V 0.000H 196.686ZM 204.715 0.000V 2.000H 200.701V 0.000H 204.715ZM 212.743 0.000V 2.000H 208.729V 0.000H 212.743ZM 220.771 0.000V 2.000H 216.758V 0.000H 220.771ZM 228.800 0.000V 2.000H 224.786V 0.000H 228.800ZM 236.828 0.000V 2.000H 232.814V 0.000H 236.828ZM 244.856 0.000V 2.000H 240.842V 0.000H 244.856ZM 252.884 0.000V 2.000H 248.871V 0.000H 252.884ZM 260.913 0.000V 2.000H 256.899V 0.000H 260.913ZM 268.941 0.000V 2.000H 264.927V 0.000H 268.941ZM 276.969 0.000V 2.000H 272.956V 0.000H 276.969ZM 284.998 0.000V 2.000H 280.984V 0.000H 284.998ZM 293.026 0.000V 2.000H 289.012V 0.000H 293.026ZM 301.054 0.000V 2.000H 297.041V 0.000H 301.054ZM 309.083 0.000V 2.000H 305.069V 0.000H 309.083ZM 317.111 0.000V 2.000H 313.097V 0.000H 317.111Z" fill="#B1B3BC"/>
</svg>