{
  "asset": {
    "generator": "glTF-Transform v4.5.0",
    "version": "2.0"
  },
  "accessors": [
    {
      "type": "SCALAR",
      "componentType": 5123,
      "count": 41160,
      "normalized": false,
      "byteOffset": 0,
      "bufferView": 0
    },
    {
      "type": "VEC2",
      "componentType": 5126,
      "count": 14723,
      "normalized": false,
      "byteOffset": 0,
      "bufferView": 1
    },
    {
      "type": "VEC3",
      "componentType": 5126,
      "count": 14723,
      "max": [
        1.225214958190918,
        2.8000006675720215,
        1.2637063264846802
      ],
      "min": [
        -1.2324203252792358,
        0.009851436130702496,
        -1.2619481086730957
      ],
      "normalized": false,
      "byteOffset": 0,
      "bufferView": 2
    },
    {
      "type": "VEC2",
      "componentType": 5126,
      "count": 14723,
      "normalized": false,
      "byteOffset": 0,
      "bufferView": 3
    },
    {
      "type": "VEC3",
      "componentType": 5120,
      "count": 14723,
      "normalized": true,
      "byteOffset": 0,
      "bufferView": 4
    }
  ],
  "bufferViews": [
    {
      "buffer": 1,
      "byteOffset": 0,
      "byteLength": 82320,
      "target": 34963,
      "extensions": {
        "EXT_meshopt_compression": {
          "buffer": 0,
          "byteOffset": 0,
          "byteLength": 14158,
          "mode": "TRIANGLES",
          "byteStride": 2,
          "count": 41160
        }
      }
    },
    {
      "buffer": 1,
      "byteOffset": 82320,
      "byteLength": 117784,
      "target": 34962,
      "byteStride": 8,
      "extensions": {
        "EXT_meshopt_compression": {
          "buffer": 0,
          "byteOffset": 14160,
          "byteLength": 84766,
          "mode": "ATTRIBUTES",
          "byteStride": 8,
          "count": 14723
        }
      }
    },
    {
      "buffer": 1,
      "byteOffset": 200104,
      "byteLength": 176676,
      "target": 34962,
      "byteStride": 12,
      "extensions": {
        "EXT_meshopt_compression": {
          "buffer": 0,
          "byteOffset": 98928,
          "byteLength": 131486,
          "mode": "ATTRIBUTES",
          "byteStride": 12,
          "count": 14723
        }
      }
    },
    {
      "buffer": 1,
      "byteOffset": 376780,
      "byteLength": 117784,
      "target": 34962,
      "byteStride": 8,
      "extensions": {
        "EXT_meshopt_compression": {
          "buffer": 0,
          "byteOffset": 230416,
          "byteLength": 86316,
          "mode": "ATTRIBUTES",
          "byteStride": 8,
          "count": 14723
        }
      }
    },
    {
      "buffer": 1,
      "byteOffset": 494564,
      "byteLength": 58892,
      "target": 34962,
      "byteStride": 4,
      "extensions": {
        "EXT_meshopt_compression": {
          "buffer": 0,
          "byteOffset": 316732,
          "byteLength": 30187,
          "mode": "ATTRIBUTES",
          "filter": "OCTAHEDRAL",
          "byteStride": 4,
          "count": 14723
        }
      }
    }
  ],
  "samplers": [
    {
      "magFilter": 9729,
      "minFilter": 9987,
      "wrapS": 10497,
      "wrapT": 10497
    }
  ],
  "textures": [
    {
      "sampler": 0,
      "extensions": {
        "EXT_texture_webp": {
          "source": 1
        }
      }
    },
    {
      "sampler": 0,
      "extensions": {
        "EXT_texture_webp": {
          "source": 0
        }
      }
    }
  ],
  "images": [
    {
      "name": "NormalGL_9daf1c65-c135-4394-9443-bd246e9a833c",
      "mimeType": "image/webp",
      "uri": "aninga_normalgl9d_n.webp"
    },
    {
      "name": "Color_9daf1c65-c135-4394-9443-bd246e9a833c",
      "mimeType": "image/webp",
      "uri": "aninga_color9daf1_c.webp"
    }
  ],
  "buffers": [
    {
      "uri": "aninga_lod0.bin",
      "byteLength": 346920
    },
    {
      "byteLength": 553456,
      "extensions": {
        "EXT_meshopt_compression": {
          "fallback": true
        }
      }
    }
  ],
  "materials": [
    {
      "name": "solid_aninga",
      "doubleSided": true,
      "pbrMetallicRoughness": {
        "roughnessFactor": 0.5,
        "metallicFactor": 0,
        "baseColorTexture": {
          "index": 0
        }
      },
      "normalTexture": {
        "index": 1
      }
    }
  ],
  "meshes": [
    {
      "name": "Mangrove Arrowleaf Clump Mesh.001",
      "primitives": [
        {
          "attributes": {
            "_FLORA": 1,
            "POSITION": 2,
            "TEXCOORD_0": 3,
            "NORMAL": 4
          },
          "mode": 4,
          "material": 0,
          "indices": 0
        }
      ]
    }
  ],
  "nodes": [
    {
      "name": "aninga_lod0",
      "mesh": 0
    }
  ],
  "scenes": [
    {
      "name": "Scene",
      "nodes": [
        0
      ]
    }
  ],
  "scene": 0,
  "extensionsUsed": [
    "EXT_meshopt_compression",
    "EXT_texture_webp"
  ],
  "extensionsRequired": [
    "EXT_meshopt_compression",
    "EXT_texture_webp"
  ]
}