{
  "asset": {
    "generator": "glTF-Transform v4.5.0",
    "version": "2.0"
  },
  "accessors": [
    {
      "type": "SCALAR",
      "componentType": 5123,
      "count": 41160,
      "normalized": false,
      "byteOffset": 0,
      "bufferView": 0
    },
    {
      "type": "VEC2",
      "componentType": 5126,
      "count": 13665,
      "normalized": false,
      "byteOffset": 0,
      "bufferView": 1
    },
    {
      "type": "VEC3",
      "componentType": 5126,
      "count": 13665,
      "max": [
        1.103057861328125,
        2.397688627243042,
        1.1754405498504639
      ],
      "min": [
        -1.1053694486618042,
        0.005452815908938646,
        -1.1786694526672363
      ],
      "normalized": false,
      "byteOffset": 0,
      "bufferView": 2
    },
    {
      "type": "VEC3",
      "componentType": 5120,
      "count": 13665,
      "normalized": true,
      "byteOffset": 0,
      "bufferView": 3
    },
    {
      "type": "VEC2",
      "componentType": 5123,
      "count": 13665,
      "normalized": true,
      "byteOffset": 0,
      "bufferView": 4
    }
  ],
  "bufferViews": [
    {
      "buffer": 1,
      "byteOffset": 0,
      "byteLength": 82320,
      "target": 34963,
      "extensions": {
        "EXT_meshopt_compression": {
          "buffer": 0,
          "byteOffset": 0,
          "byteLength": 14187,
          "mode": "TRIANGLES",
          "byteStride": 2,
          "count": 41160
        }
      }
    },
    {
      "buffer": 1,
      "byteOffset": 82320,
      "byteLength": 109320,
      "target": 34962,
      "byteStride": 8,
      "extensions": {
        "EXT_meshopt_compression": {
          "buffer": 0,
          "byteOffset": 14188,
          "byteLength": 83224,
          "mode": "ATTRIBUTES",
          "byteStride": 8,
          "count": 13665
        }
      }
    },
    {
      "buffer": 1,
      "byteOffset": 191640,
      "byteLength": 163980,
      "target": 34962,
      "byteStride": 12,
      "extensions": {
        "EXT_meshopt_compression": {
          "buffer": 0,
          "byteOffset": 97412,
          "byteLength": 124342,
          "mode": "ATTRIBUTES",
          "byteStride": 12,
          "count": 13665
        }
      }
    },
    {
      "buffer": 1,
      "byteOffset": 355620,
      "byteLength": 54660,
      "target": 34962,
      "byteStride": 4,
      "extensions": {
        "EXT_meshopt_compression": {
          "buffer": 0,
          "byteOffset": 221756,
          "byteLength": 27010,
          "mode": "ATTRIBUTES",
          "filter": "OCTAHEDRAL",
          "byteStride": 4,
          "count": 13665
        }
      }
    },
    {
      "buffer": 1,
      "byteOffset": 410280,
      "byteLength": 54660,
      "target": 34962,
      "byteStride": 4,
      "extensions": {
        "EXT_meshopt_compression": {
          "buffer": 0,
          "byteOffset": 248768,
          "byteLength": 42556,
          "mode": "ATTRIBUTES",
          "byteStride": 4,
          "count": 13665
        }
      }
    }
  ],
  "samplers": [
    {
      "magFilter": 9729,
      "minFilter": 9987,
      "wrapS": 10497,
      "wrapT": 10497
    }
  ],
  "textures": [
    {
      "sampler": 0,
      "extensions": {
        "EXT_texture_webp": {
          "source": 1
        }
      }
    },
    {
      "sampler": 0,
      "extensions": {
        "EXT_texture_webp": {
          "source": 0
        }
      }
    }
  ],
  "images": [
    {
      "name": "NormalGL_9d50a574-3eb3-4353-aac2-c72c5263b951",
      "mimeType": "image/webp",
      "uri": "caete_normalgl9d_n.webp"
    },
    {
      "name": "Color_9d50a574-3eb3-4353-aac2-c72c5263b951",
      "mimeType": "image/webp",
      "uri": "caete_color9d50a_c.webp"
    }
  ],
  "buffers": [
    {
      "uri": "caete_lod0.bin",
      "byteLength": 291324
    },
    {
      "byteLength": 464940,
      "extensions": {
        "EXT_meshopt_compression": {
          "fallback": true
        }
      }
    }
  ],
  "materials": [
    {
      "name": "solid_caete",
      "doubleSided": true,
      "pbrMetallicRoughness": {
        "roughnessFactor": 0.5,
        "metallicFactor": 0,
        "baseColorTexture": {
          "index": 0
        }
      },
      "normalTexture": {
        "index": 1
      }
    }
  ],
  "meshes": [
    {
      "name": "Crimson Bracted Heliconia Clump Mesh.001",
      "primitives": [
        {
          "attributes": {
            "_FLORA": 1,
            "POSITION": 2,
            "NORMAL": 3,
            "TEXCOORD_0": 4
          },
          "mode": 4,
          "material": 0,
          "indices": 0
        }
      ]
    }
  ],
  "nodes": [
    {
      "name": "caete_lod0",
      "mesh": 0
    }
  ],
  "scenes": [
    {
      "name": "Scene",
      "nodes": [
        0
      ]
    }
  ],
  "scene": 0,
  "extensionsUsed": [
    "EXT_meshopt_compression",
    "EXT_texture_webp"
  ],
  "extensionsRequired": [
    "EXT_meshopt_compression",
    "EXT_texture_webp"
  ]
}