<svg xmlns="http://www.w3.org/2000/svg" viewBox="0 -960 960 960"><path fill="#fff" d="m722.04-723.48-70.3-30.87q-6.13-3.13-9.26-7.26t-3.13-10.54q0-6.42 3.13-11.05 3.13-4.63 9.26-7.19l70.3-30.44 28.44-67.87q2.56-6.13 7.48-9.47 4.91-3.35 11.04-3.35 6.13 0 10.76 3.35 4.63 3.34 7.76 9.47l28.44 67.87 70.3 30.44q6.13 2.56 8.7 7.19 2.56 4.63 2.56 11.05 0 6.41-2.56 10.54-2.57 4.13-8.7 7.26l-70.3 30.87-28.44 63.87q-3.13 6.13-7.76 9.26T769-647.22q-6.13 0-11.04-3.13-4.92-3.13-7.48-9.26l-28.44-63.87Zm-486 337.57L85-453.22q-8.7-4.13-13.61-12.11-4.91-7.97-4.91-15.67t4.91-15.67q4.91-7.98 13.61-12.11l151.04-67.31 70.31-149.04q4.13-8.7 11.61-13.39 7.47-4.7 15.45-4.7 7.98 0 15.46 4.2 7.48 4.19 11.04 12.89l71.31 150.04 151.61 67.31q8.69 4.13 13.61 12.11 4.91 7.97 4.91 15.67t-4.91 15.67q-4.92 7.98-13.61 12.11l-151.61 67.31-71.31 150.04q-3.56 8.7-11.04 13.11-7.48 4.41-15.46 4.41t-15.45-4.41q-7.48-4.41-11.61-13.11l-70.31-150.04Zm489.57 253.87-70.31-30.44q-6.13-2.56-8.97-7.48-2.85-4.91-2.85-11.04 0-6.13 2.85-11.04 2.84-4.92 8.97-7.48l70.31-30.44 28.43-67.87q3.13-5.56 7.76-8.69t11.05-3.13q6.41 0 11.04 3.13 4.63 3.13 7.76 8.69l27.87 67.87 70.31 30.44q6.13 2.56 9.26 7.48 3.13 4.91 3.13 11.04 0 6.13-3.13 11.04-3.13 4.92-9.26 7.48l-70.31 30.44-27.87 64.3q-3.13 6.13-7.76 9.26t-11.04 3.13q-6.42 0-11.05-3.13-4.63-3.13-7.76-9.26l-28.43-64.3Z"/></svg>
